<?xml version="1.0" standalone="no"?>
<!DOCTYPE svg PUBLIC "-//W3C//DTD SVG 20010904//EN"
 "http://www.w3.org/TR/2001/REC-SVG-20010904/DTD/svg10.dtd">
<svg version="1.0" xmlns="http://www.w3.org/2000/svg"
 width="512.000000pt" height="512.000000pt" viewBox="0 0 512.000000 512.000000"
 preserveAspectRatio="xMidYMid meet">

<g transform="translate(0.000000,512.000000) scale(0.100000,-0.100000)"
fill="#000000" stroke="none">
<path d="M2276 5110 c-506 -40 -823 -153 -906 -324 -14 -29 -38 -144 -71 -333
-27 -158 -55 -306 -62 -328 -13 -37 -19 -42 -101 -77 -180 -78 -305 -181 -360
-298 -28 -58 -31 -75 -31 -155 0 -80 3 -97 31 -155 39 -82 104 -154 194 -216
l70 -48 0 -90 c0 -109 13 -198 42 -286 31 -96 55 -138 113 -200 28 -30 60 -75
69 -100 10 -25 26 -60 37 -78 l19 -33 -34 -73 c-30 -66 -39 -76 -90 -106 -96
-54 -216 -148 -319 -249 -262 -256 -411 -545 -483 -936 -10 -58 -18 -171 -21
-315 -5 -217 -5 -227 17 -278 75 -174 398 -291 1027 -372 377 -48 517 -54
1138 -55 486 0 626 3 793 18 713 63 1156 170 1317 318 24 22 53 62 65 91 22
51 22 61 17 278 -3 144 -11 257 -21 315 -72 391 -221 680 -483 936 -103 101
-223 195 -319 249 -52 30 -60 40 -91 108 l-35 75 33 71 c21 46 53 93 91 133
101 106 146 237 155 450 l6 131 68 47 c89 61 154 133 193 215 28 58 31 75 31
155 0 80 -3 97 -31 155 -56 119 -193 230 -369 301 -47 19 -87 40 -90 48 -3 7
-30 155 -60 328 -36 208 -61 329 -75 359 -97 200 -504 319 -1125 329 -132 2
-289 0 -349 -5z m394 -1610 l0 -150 -100 0 -100 0 0 150 0 150 100 0 100 0 0
-150z m-1259 -328 c1 -37 5 -80 8 -97 7 -29 8 -29 24 23 9 30 19 69 23 87 6
32 7 33 37 24 18 -5 97 -22 177 -39 528 -107 1232 -107 1760 0 80 17 160 34
177 39 31 9 33 8 39 -17 32 -143 53 -171 54 -72 1 25 4 63 8 84 7 38 9 40 74
62 l68 23 -5 -90 c-3 -49 -7 -128 -10 -176 -8 -151 -63 -266 -139 -294 -30
-11 -36 -19 -50 -71 -49 -178 -187 -343 -407 -490 -53 -35 -82 -61 -86 -77 -3
-14 -2 -26 4 -28 19 -7 -45 -108 -100 -161 -135 -127 -326 -203 -511 -202
-181 2 -371 78 -503 202 -58 56 -121 158 -97 158 17 0 17 3 3 32 -6 13 -50 49
-98 80 -217 145 -353 309 -405 489 -14 46 -22 58 -50 72 -73 35 -123 144 -131
287 -3 47 -7 126 -10 177 l-5 92 75 -26 75 -25 1 -66z m1986 -2260 c-89 -87
-229 -221 -312 -296 -205 -189 -260 -249 -302 -333 -34 -70 -62 -99 -48 -50
24 79 95 163 300 355 88 82 239 224 334 315 96 92 178 167 182 167 4 0 -65
-71 -154 -158z m-2166 61 c-28 -57 -49 -155 -62 -290 -7 -68 -15 -123 -18
-123 -3 0 -12 4 -20 9 -33 21 25 296 83 396 32 54 44 60 17 8z m2697 -50 c48
-106 63 -195 69 -409 5 -188 5 -191 -16 -197 -21 -5 -21 -3 -21 156 0 230 -29
417 -78 512 -13 26 -13 28 0 18 8 -7 29 -43 46 -80z m-1673 -498 c82 -82 160
-215 126 -215 -4 0 -22 28 -39 63 -43 86 -90 139 -287 325 -93 88 -195 186
-225 218 -68 71 328 -293 425 -391z"/>
</g>
</svg>
